<?xml version="1.0" encoding="UTF-8" standalone="no"?>
<!-- Created with Inkscape (http://www.inkscape.org/) -->

<svg
   width="39.159512mm"
   height="46.882854mm"
   viewBox="-1 -1 41.159513 48.882855"
   version="1.1"
   id="svg5"
   xmlns="http://www.w3.org/2000/svg"
   xmlns:svg="http://www.w3.org/2000/svg">
  <defs
     id="defs2" />
  <g
     id="layer1"
     transform="translate(-258.74067,-520.42064)">
    <path
       stroke="black"
       stroke-width="0.5"
       stroke-dasharray="50 50"
       stroke-dashoffset="10"
       pathLength="100"
       fill="none"
       stroke-linejoin="round"
       d="m 283.66215,520.42212 c -1.6579,0.0238 -3.30356,0.33553 -4.855,0.9219 -0.3644,0.13773 -0.72436,0.29093 -1.07849,0.45941 -2.35139,1.10481 -4.40783,2.9232 -5.75934,5.30252 -1.0039,1.83397 -1.51121,3.82545 -1.59525,5.78104 -0.0862,1.9547 0.17995,3.83727 0.66353,5.5857 0.605,2.16079 1.47095,4.14541 2.36833,5.99395 -9.3235,-1.85119 -14.66526,-5.57795 -14.66526,-5.57795 0,0 5.27762,5.09185 15.90756,8.06101 0.14351,0.2827 0.29351,0.57677 0.43202,0.85317 1.44038,2.98445 2.63947,5.69496 2.81584,8.47752 0.1042,1.45525 -0.0303,2.87021 -0.4749,4.13308 -0.4706,1.33666 -1.25081,2.51809 -2.2655,3.33158 -1.2016,0.98209 -2.75457,1.47536 -4.20542,1.4609 -1.67131,-0.0124 -3.23711,-0.67961 -4.36253,-1.63143 -1.42666,-1.20246 -2.17642,-2.83312 -2.42672,-4.23437 -0.59279,-3.30258 0.87333,-5.04723 0.87333,-5.04723 0,0 -1.77102,1.47838 -1.60611,5.12681 0.0717,1.5608 0.6544,3.52273 2.17765,5.17023 1.21046,1.30551 3.01505,2.37673 5.19348,2.64945 1.89754,0.23379 4.02226,-0.16125 5.87819,-1.36374 1.53944,-1.01124 2.80759,-2.49976 3.61684,-4.28294 0.75883,-1.67065 1.13982,-3.52236 1.15393,-5.40794 0.004,-2.84274 -0.67587,-5.56598 -1.64124,-8.17935 1.41499,0.16256 2.89768,0.21746 4.4204,0.0987 3.11537,-0.23739 6.47009,-1.32983 9.21391,-3.73828 2.34148,-2.10349 3.96702,-5.09457 4.36717,-8.43721 0.37688,-3.22891 -0.41198,-6.59289 -2.31252,-9.3865 -1.88225,-2.74855 -4.72318,-4.77265 -7.98245,-5.64772 -1.26508,-0.33544 -2.56198,-0.49082 -3.85145,-0.47232 z m 0.46095,5.30872 c 0.70374,0.005 1.40544,0.0874 2.08205,0.25269 2.0356,0.48648 3.966,1.74562 5.23275,3.437 1.29305,1.70911 1.97393,3.95442 1.85674,6.09265 -0.11146,2.21617 -1.08021,4.4192 -2.58589,6.00015 -1.7338,1.87966 -4.33827,2.96829 -6.87968,3.44631 -1.69647,0.31428 -3.4525,0.34721 -5.15421,0.23564 -1.13227,-2.70424 -2.3481,-5.35225 -2.882,-7.90443 -0.29715,-1.39352 -0.44561,-2.77666 -0.32194,-4.07468 0.12517,-1.28655 0.46118,-2.52141 1.06453,-3.51245 0.74663,-1.30845 2.04206,-2.37859 3.48661,-3.0794 0.21942,-0.10436 0.44353,-0.19958 0.6718,-0.28577 1.07753,-0.40683 2.25637,-0.61574 3.42924,-0.60771 z"
       id="path1">
         <animate
            attributeName="stroke-dashoffset"
            begin="0s"
            dur="1s"
            from="0"
            to="100"
            repeatCount="indefinite"
         />
       </path>
  </g>
</svg>
