<svg viewBox="-5 -5 49.16 56.88" xmlns="http://www.w3.org/2000/svg"><path stroke="#000" style="filter:drop-shadow(0 0 1px #f0f)" stroke-width=".5" stroke-dasharray="100 100" pathLength="100" fill="none" stroke-linejoin="round" d="M284.12 525.73a9.4 9.4 0 0 1 7.31 3.69 9.45 9.45 0 0 1 1.86 6.1 9.58 9.58 0 0 1-2.58 6c-1.74 1.87-4.34 2.96-6.88 3.44-1.7.31-3.45.35-5.16.24-1.13-2.7-2.34-5.36-2.88-7.9-.3-1.4-.44-2.79-.32-4.08a8.36 8.36 0 0 1 1.07-3.52 8.03 8.03 0 0 1 4.15-3.36 9.59 9.59 0 0 1 3.43-.6z" transform="translate(-258.74 -520.42)"><animate attributeName="stroke-dashoffset" begin="0s" dur="4s" from="200" to="0" repeatCount="indefinite"/></path><path stroke="#000" style="filter:drop-shadow(0 0 1px #f0f)" stroke-width=".5" stroke-dasharray="25 25" pathLength="100" fill="none" stroke-linejoin="round" d="M283.66 520.42a14.32 14.32 0 0 0-5.93 1.38 12.95 12.95 0 0 0-5.76 5.3c-1 1.84-1.51 3.83-1.6 5.79-.08 1.95.18 3.83.67 5.58.6 2.16 1.47 4.15 2.37 6-9.33-1.85-14.67-5.58-14.67-5.58s5.28 5.1 15.9 8.06l.44.85c1.44 2.99 2.64 5.7 2.82 8.48.1 1.46-.03 2.87-.48 4.13a7.4 7.4 0 0 1-2.26 3.34 6.65 6.65 0 0 1-4.21 1.46 6.95 6.95 0 0 1-4.36-1.64 7.28 7.28 0 0 1-2.43-4.23c-.6-3.3.87-5.05.87-5.05s-1.77 1.48-1.6 5.13a8.23 8.23 0 0 0 2.18 5.17 8.57 8.57 0 0 0 5.19 2.65c1.9.23 4.02-.16 5.88-1.36 1.54-1.02 2.8-2.5 3.61-4.29a13.33 13.33 0 0 0 1.16-5.4c0-2.85-.68-5.57-1.64-8.18 1.41.16 2.9.21 4.42.1a15.7 15.7 0 0 0 9.21-3.74c2.34-2.1 3.97-5.1 4.37-8.44a13.89 13.89 0 0 0-10.3-15.04c-1.26-.33-2.56-.49-3.85-.47z" transform="translate(-258.74 -520.42)"><animate attributeName="stroke-dashoffset" begin="0s" dur="4s" from="0" to="100" repeatCount="indefinite"/></path></svg>
